<svg xmlns="http://www.w3.org/2000/svg" width="1800" height="1180" viewBox="0 0 1800 1180" role="img" aria-labelledby="title desc">
  <title id="title">Semantic-Native VAE Architecture</title>
  <desc id="desc">Thesis-style SVG showing a U-shaped semantic-native VAE with a trainable semantic stem, frozen encoder core, latent bottleneck, frozen decoder core, and trainable semantic head.</desc>

  <defs>
    <style>
      text { font-family: Arial, Helvetica, sans-serif; fill: #162433; }
      .title { font-size: 30px; font-weight: 700; }
      .section { font-size: 18px; font-weight: 700; }
      .label { font-size: 15px; font-weight: 700; }
      .body { font-size: 13px; font-weight: 400; }
      .small { font-size: 12px; fill: #546679; font-weight: 400; }
      .box { fill: #ffffff; stroke-width: 2; rx: 14; ry: 14; }
      .trainable { fill: #e3f0ff; stroke: #2d6aa3; }
      .frozen { fill: #eef1f4; stroke: #6d7782; }
      .latent { fill: #ffedd7; stroke: #b97312; }
      .op { fill: #ffffff; stroke: #9fb1c2; }
      .legend { fill: #fbfcfe; stroke: #c9d2db; }
      .arrow { stroke: #243748; stroke-width: 2.8; fill: none; marker-end: url(#arrow); }
      .guide { stroke: #d7dde4; stroke-width: 1.4; }
    </style>

    <marker id="arrow" viewBox="0 0 10 10" refX="8.6" refY="5" markerWidth="8" markerHeight="8" orient="auto">
      <path d="M 0 0 L 10 5 L 0 10 z" fill="#243748"/>
    </marker>
  </defs>

  <rect x="0" y="0" width="1800" height="1180" fill="#ffffff"/>

  <text x="900" y="54" text-anchor="middle" class="title">Semantic-Native VAE Architecture</text>

  <!-- legend -->
  <rect x="595" y="96" width="610" height="70" class="box legend"/>
  <text x="622" y="124" class="label">Legend</text>
  <rect x="622" y="134" width="24" height="18" class="box trainable"/>
  <text x="657" y="148" class="body">Trainable module</text>
  <rect x="835" y="134" width="24" height="18" class="box frozen"/>
  <text x="870" y="148" class="body">Frozen VAE core</text>
  <rect x="1020" y="134" width="24" height="18" class="box latent"/>
  <text x="1055" y="148" class="body">Latent tensor</text>

  <!-- section headings -->
  <text x="365" y="220" text-anchor="middle" class="section">2D Encoder Branch</text>
  <text x="1435" y="220" text-anchor="middle" class="section">3D Decoder Branch</text>

  <!-- left input path -->
  <rect x="90" y="260" width="250" height="94" class="box op"/>
  <text x="215" y="291" text-anchor="middle" class="label">Semantic ID Input</text>
  <text x="215" y="315" text-anchor="middle" class="body"><tspan font-family="monospace">[B, T, 192, 704]</tspan></text>
  <text x="215" y="337" text-anchor="middle" class="body">discrete class map</text>

  <rect x="90" y="400" width="250" height="94" class="box op"/>
  <text x="215" y="431" text-anchor="middle" class="label">One-Hot Encoding</text>
  <text x="215" y="455" text-anchor="middle" class="body"><tspan font-family="monospace">[B*T, 19, 192, 704]</tspan></text>
  <text x="215" y="477" text-anchor="middle" class="body">flattened clip batch</text>

  <rect x="90" y="540" width="250" height="154" class="box trainable"/>
  <text x="215" y="572" text-anchor="middle" class="label">Semantic Stem</text>
  <text x="215" y="600" text-anchor="middle" class="label"><tspan font-family="monospace">19 → 64 → 128</tspan></text>
  <text x="215" y="626" text-anchor="middle" class="body">Conv → GN → SiLU → Conv</text>
  <text x="215" y="652" text-anchor="middle" class="body">input projection replacement</text>

  <!-- left encoder U wall -->
  <rect x="430" y="260" width="250" height="94" class="box frozen"/>
  <text x="555" y="307" text-anchor="middle" class="label">Encoder Block E0</text>
  <text x="555" y="329" text-anchor="middle" class="body"><tspan font-family="monospace">128 ch</tspan></text>
  <text x="555" y="349" text-anchor="middle" class="body"><tspan font-family="monospace">192×704 → 96×352</tspan></text>

  <rect x="430" y="400" width="250" height="94" class="box frozen"/>
  <text x="555" y="447" text-anchor="middle" class="label">Encoder Block E1</text>
  <text x="555" y="469" text-anchor="middle" class="body"><tspan font-family="monospace">256 ch</tspan></text>
  <text x="555" y="489" text-anchor="middle" class="body"><tspan font-family="monospace">96×352 → 48×176</tspan></text>

  <rect x="430" y="540" width="250" height="94" class="box frozen"/>
  <text x="555" y="587" text-anchor="middle" class="label">Encoder Block E2</text>
  <text x="555" y="609" text-anchor="middle" class="body"><tspan font-family="monospace">512 ch</tspan></text>
  <text x="555" y="629" text-anchor="middle" class="body"><tspan font-family="monospace">48×176 → 24×88</tspan></text>

  <rect x="430" y="680" width="250" height="94" class="box frozen"/>
  <text x="555" y="727" text-anchor="middle" class="label">Encoder Block E3</text>
  <text x="555" y="749" text-anchor="middle" class="body"><tspan font-family="monospace">512 ch</tspan></text>
  <text x="555" y="769" text-anchor="middle" class="body"><tspan font-family="monospace">24×88 → 24×88</tspan></text>

  <rect x="430" y="820" width="250" height="94" class="box frozen"/>
  <text x="555" y="851" text-anchor="middle" class="label">Encoder Mid + Output</text>
  <text x="555" y="875" text-anchor="middle" class="body"><tspan font-family="monospace">latent params</tspan></text>
  <text x="555" y="897" text-anchor="middle" class="body"><tspan font-family="monospace">[B*T, 8, 24, 88]</tspan></text>

  <!-- bottom bottleneck -->
  <rect x="775" y="915" width="250" height="110" class="box latent"/>
  <text x="900" y="949" text-anchor="middle" class="label">Latent Bottleneck</text>
  <text x="900" y="976" text-anchor="middle" class="body"><tspan font-family="monospace">mean, logvar → z</tspan></text>
  <text x="900" y="1002" text-anchor="middle" class="body"><tspan font-family="monospace">[B*T, 4, 24, 88]</tspan></text>

  <!-- right decoder U wall -->
  <rect x="1120" y="820" width="250" height="94" class="box frozen"/>
  <text x="1245" y="851" text-anchor="middle" class="label">Decoder Entry</text>
  <text x="1245" y="875" text-anchor="middle" class="body"><tspan font-family="monospace">z → decode(num_frames=1)</tspan></text>
  <text x="1245" y="897" text-anchor="middle" class="body"><tspan font-family="monospace">frozen temporal decoder</tspan></text>

  <rect x="1120" y="680" width="250" height="94" class="box frozen"/>
  <text x="1245" y="727" text-anchor="middle" class="label">Decoder Block D3</text>
  <text x="1245" y="749" text-anchor="middle" class="body"><tspan font-family="monospace">frozen 3D up block</tspan></text>
  <text x="1245" y="769" text-anchor="middle" class="body"><tspan font-family="monospace">24×88 → higher detail</tspan></text>

  <rect x="1120" y="540" width="250" height="94" class="box frozen"/>
  <text x="1245" y="587" text-anchor="middle" class="label">Decoder Block D2</text>
  <text x="1245" y="609" text-anchor="middle" class="body"><tspan font-family="monospace">frozen 3D up block</tspan></text>
  <text x="1245" y="629" text-anchor="middle" class="body"><tspan font-family="monospace">toward 48×176, 96×352</tspan></text>

  <rect x="1120" y="400" width="250" height="94" class="box frozen"/>
  <text x="1245" y="447" text-anchor="middle" class="label">Decoder Block D1</text>
  <text x="1245" y="469" text-anchor="middle" class="body"><tspan font-family="monospace">frozen 3D up block</tspan></text>
  <text x="1245" y="489" text-anchor="middle" class="body"><tspan font-family="monospace">restores 192×704</tspan></text>

  <rect x="1120" y="260" width="250" height="94" class="box frozen"/>
  <text x="1245" y="291" text-anchor="middle" class="label">Decoder Feature Tensor</text>
  <text x="1245" y="315" text-anchor="middle" class="body"><tspan font-family="monospace">decoder.conv_act</tspan></text>
  <text x="1245" y="337" text-anchor="middle" class="body"><tspan font-family="monospace">[B*T, 128, 192, 704]</tspan></text>

  <!-- right output path -->
  <rect x="1480" y="400" width="250" height="154" class="box trainable"/>
  <text x="1600" y="447" text-anchor="middle" class="label">Semantic Head</text>
  <text x="1600" y="473" text-anchor="middle" class="body">Conv3d → GN → SiLU → Conv3d</text>
  <text x="1600" y="499" text-anchor="middle" class="body"><tspan font-family="monospace">128 → 64 → 19</tspan></text>
  <text x="1600" y="525" text-anchor="middle" class="body"><tspan font-family="monospace">[B, T, 19, 192, 704]</tspan></text>

  <rect x="1480" y="600" width="250" height="94" class="box op"/>
  <text x="1600" y="640" text-anchor="middle" class="label">Semantic Logits</text>
  <text x="1600" y="670" text-anchor="middle" class="body"><tspan font-family="monospace">[B, T, 19, 192, 704]</tspan></text>

  <rect x="1480" y="740" width="250" height="94" class="box op"/>
  <text x="1600" y="780" text-anchor="middle" class="label">Predicted Semantic IDs</text>
  <text x="1600" y="810" text-anchor="middle" class="body"><tspan font-family="monospace">[B, T, 192, 704]</tspan></text>

  <!-- flow arrows left -->
  <path d="M 215 354 L 215 400" class="arrow"/>
  <path d="M 215 494 L 215 540" class="arrow"/>
  <path d="M 340 617 L 400 617 L 400 307 L 430 307" class="arrow"/>

  <path d="M 555 354 L 555 400" class="arrow"/>
  <path d="M 555 494 L 555 540" class="arrow"/>
  <path d="M 555 634 L 555 680" class="arrow"/>
  <path d="M 555 774 L 555 820" class="arrow"/>

  <!-- bottom connector -->
  <path d="M 680 867 L 720 867 L 720 970 L 775 970" class="arrow"/>
  <path d="M 1025 970 L 1080 970 L 1080 867 L 1120 867" class="arrow"/>

  <!-- flow arrows right -->
  <path d="M 1245 820 L 1245 774" class="arrow"/>
  <path d="M 1245 680 L 1245 634" class="arrow"/>
  <path d="M 1245 540 L 1245 494" class="arrow"/>
  <path d="M 1245 400 L 1245 354" class="arrow"/>

  <path d="M 1370 307 L 1425 307 L 1425 477 L 1480 477" class="arrow"/>
  <path d="M 1600 554 L 1600 600" class="arrow"/>
  <path d="M 1600 694 L 1600 740" class="arrow"/>

  <!-- right-side reshape note -->
  <rect x="1470" y="260" width="260" height="94" class="box legend"/>
  <text x="1600" y="292" text-anchor="middle" class="label">Clip Reconstruction</text>
  <text x="1600" y="318" text-anchor="middle" class="body"><tspan font-family="monospace">reshape</tspan></text>
  <text x="1600" y="340" text-anchor="middle" class="body"><tspan font-family="monospace">[B*T, C, H, W] → [B, T, C, H, W]</tspan></text>

  <!-- conv_in bypass annotation -->
  <rect x="328" y="284" width="100" height="24" rx="4" ry="4" class="box legend"/>
  <text x="378" y="300" text-anchor="middle" class="small">bypasses conv_in</text>

  <!-- side labels -->
  <rect x="690" y="286" width="140" height="34" class="box legend"/>
  <text x="760" y="308" text-anchor="middle" class="small">Frozen encoder core</text>

  <rect x="990" y="286" width="110" height="34" class="box legend"/>
  <text x="1045" y="308" text-anchor="middle" class="small">Decoder core</text>

  <!-- guide lines -->
  <line x1="900" y1="235" x2="900" y2="1060" class="guide"/>
  <line x1="390" y1="245" x2="390" y2="940" class="guide"/>
  <line x1="1410" y1="245" x2="1410" y2="940" class="guide"/>
</svg>
